<svg width="2966" height="1507" viewBox="0 0 2966 1507" fill="none" xmlns="http://www.w3.org/2000/svg">
<path d="M577.006 749.401C577.006 749.401 376.773 604.996 188.886 505.622C-39.7983 384.669 33.7458 292.568 72.3167 239.469C113.732 404.226 421.249 566.928 630.072 718.311L719.665 788.343L809.258 858.375C904.275 931.919 986.78 1029.48 1010.22 1127.32C1033.11 1222.87 985.515 1233.61 943.117 1233.61C976.209 1104.24 823.215 956.613 758.259 899.173L577.006 749.401Z" fill="url(#paint0_linear_169_1189)"/>
<path d="M1126.76 1023.35C1198.41 1149.59 1118.04 1227.17 1047.8 1227.17C1096.57 1044.68 892.119 873.941 837.277 832.565L655.382 700.223C508.832 597.155 470.18 577.554 332.216 471.266C173.561 349.037 56.2922 209.835 86.363 107.071C108.521 31.3468 165.276 -9.41901 273.176 1.85377C225.936 89.8925 398.245 407.137 738.052 643.32L911.176 775.831C924.865 789.124 1054.16 895.441 1126.76 1023.35Z" fill="url(#paint1_linear_169_1189)"/>
<path d="M1107.19 492.198C1155.17 279.822 986.613 283.043 962.456 351.755C1078.95 716.255 93.6198 933.373 13.7192 1255.86C-50.5235 1515.14 190.573 1525.16 266.942 1494.69C43.6712 1082.37 1045.51 765.204 1107.19 492.198Z" fill="url(#paint2_linear_169_1189)"/>
<circle cx="759.706" cy="415.368" r="87.1299" fill="url(#paint3_linear_169_1189)"/>
<mask id="mask0_169_1189" style="mask-type:alpha" maskUnits="userSpaceOnUse" x="0" y="1" width="1152" height="1507">
<path d="M964.705 344.349C964.622 344.208 964.569 344.027 964.548 343.805C964.6 343.986 964.653 344.168 964.705 344.349C969.231 352.073 1063.69 243.089 1112.18 402.319C1208.8 719.579 34.2991 1055.09 258.862 1498.65C182.494 1529.12 -93.5198 1485.48 34.2998 1211.74C173.801 912.984 1068.33 704.221 964.705 344.349Z" fill="url(#paint4_linear_169_1189)"/>
<path d="M964.548 343.805C965.757 356.152 1062.8 240.174 1112.18 402.319C1208.8 719.579 34.2991 1055.09 258.862 1498.65C182.494 1529.12 -93.5197 1485.48 34.2998 1211.74C173.871 912.834 1069.23 704.011 964.548 343.805Z" stroke="#001948" stroke-opacity="0.13"/>
<path d="M1120.8 1025.33C1181.94 1142.55 1148.2 1195.8 1048.89 1230.16C1095.59 1047.64 887.288 861.595 836.29 835.828L910.371 778.925C927.746 781.648 1059.67 908.097 1120.8 1025.33Z" fill="url(#paint5_linear_169_1189)"/>
<path d="M278.535 429.393C92 278 -54.829 18.7897 270.483 1.01172C236.663 60.0618 307.053 193.499 395.577 316.431C496.049 455.954 660.75 590.439 735.905 641.437L655.919 700.487C514.74 596.344 410.889 536.812 278.535 429.393Z" fill="url(#paint6_linear_169_1189)"/>
<path d="M236.128 532.526C15.2134 399.455 -9.19836 366.649 71.324 236.676C102.46 412.278 566.808 661.899 629.615 718.202L583.001 759C423.029 632.311 372.48 614.659 236.128 532.526Z" fill="url(#paint7_linear_169_1189)"/>
<path d="M1005 1102.5C1046.68 1236.25 977.666 1230.93 940.971 1230.93C974.889 1095.25 806.351 942.019 757.501 898L806.767 855.691C892.121 919.036 981.917 1028.42 1005 1102.5Z" fill="url(#paint8_linear_169_1189)"/>
<circle cx="759.706" cy="415.368" r="87.1299" fill="url(#paint9_linear_169_1189)"/>
</mask>
<g mask="url(#mask0_169_1189)">
<path d="M635.197 439.684C635.197 439.684 570.294 409.949 390.403 448.126C327.926 466.788 99.4655 570.512 -51.2238 464.715C-171.775 380.078 -210.109 246.044 -210.302 188.44" stroke="#001948" stroke-opacity="0.15"/>
<path d="M845.432 373.867C771.136 391.904 700.67 378.161 674.723 369.035L667.208 469.42C730.732 480.693 855.417 485.74 854.558 450.095C853.699 414.45 848.116 384.424 845.432 373.867Z" fill="#F5F5F5" fill-opacity="0.09"/>
<path d="M667.74 469.007L675.173 369.721C701.618 378.851 771.417 392.218 845.068 374.469C847.786 385.399 853.213 415.027 854.058 450.107C854.161 454.396 852.384 458.085 849.017 461.258C845.637 464.441 840.663 467.095 834.416 469.265C821.923 473.605 804.49 475.961 785.003 476.852C746.223 478.627 699.465 474.597 667.74 469.007Z" stroke="#001948" stroke-opacity="0.15"/>
<path d="M-31.6967 1222.78C84.5692 1150.64 394.145 1204.86 507.236 1238.71C156.485 1208.27 20.7769 1325.44 256.908 1375.42C407.393 1401.58 487.973 1462.82 -31.6967 1496.36C66.9176 1470.2 281.148 1457.25 84.1072 1402.83C-147.5 1338.87 -127.723 1282.36 -31.6967 1222.78Z" fill="#F5F5F5" fill-opacity="0.07" stroke="#001948" stroke-opacity="0.15"/>
<path d="M1129.64 1164.46C1124.01 1113.61 1273.59 882.962 1129.65 889.75C1042.97 936.237 892.866 1295.37 701.557 906.174" stroke="#001948" stroke-opacity="0.15"/>
<path d="M623.189 496.263C680.623 309.987 85.5189 448.641 -28.3156 363.943L-138.347 278.944L-244.304 185.445C47.9416 338.593 372.79 172.819 654.325 413.593C923.649 712.439 60.8052 797.438 623.189 937.686C1073.1 1049.89 863.684 378.163 962.996 413.593L1561.03 712.439C558.52 1171.43 192.147 1107.68 212.523 937.686C232.899 767.688 623.189 578.934 623.189 496.263Z" fill="#F5F5F5" fill-opacity="0.07"/>
<path d="M606.77 532.306C617.471 518.915 623.66 506.834 623.689 496.339C630.877 472.969 627.856 454.606 616.749 440.264C605.656 425.94 586.555 415.705 561.77 408.434C512.197 393.891 439.565 391.116 361.66 391.511C332.546 391.659 302.695 392.25 273.025 392.837C223.263 393.822 174.009 394.797 129.595 393.655C94.1544 392.744 61.8222 390.486 34.8026 385.813C7.77289 381.139 -13.8798 374.059 -28.013 363.545C-28.0144 363.544 -28.0158 363.543 -28.0171 363.542L-138.029 278.559L-240.916 187.768C-113.439 253.369 20.1714 259.016 153.511 264.652C172.019 265.434 190.521 266.217 209.002 267.159C361.905 274.954 513.347 293.697 653.975 413.952C687.579 451.247 703.483 485.159 706.749 516.214C710.014 547.271 700.646 575.54 683.578 601.562C650.794 651.541 589.679 693.125 535.393 730.061C533.109 731.616 530.836 733.162 528.578 734.701C500.648 753.73 474.968 771.547 456.572 788.659C438.201 805.748 426.954 822.261 428.174 838.692C429.395 855.148 443.091 871.255 473.873 887.599C504.683 903.958 552.759 920.638 623.068 938.172C735.655 966.249 807.131 945.308 852.482 898.496C897.792 851.728 916.911 779.244 925.063 704.482C930.944 650.548 931.123 595.349 931.277 547.681C931.337 529.271 931.392 511.983 931.772 496.326C932.454 468.199 934.179 445.373 938.811 430.693C941.129 423.35 944.149 418.129 948.051 415.277C951.912 412.456 956.721 411.893 962.799 414.054L1559.87 712.419C1059.15 941.599 717.289 1040.27 503.147 1060.44C396 1070.53 320.894 1060.96 273.87 1038.31C250.366 1026.98 233.895 1012.4 223.929 995.389C213.966 978.38 210.483 958.902 213.019 937.746C218.094 895.408 246.216 851.834 285.654 808.96C325.08 766.098 375.749 724.004 425.806 684.62C441.283 672.443 456.702 660.525 471.712 648.923C505.235 623.011 536.714 598.679 562.216 576.584C580.677 560.589 596.03 545.747 606.77 532.306Z" stroke="#001948" stroke-opacity="0.15"/>
</g>
<path d="M1200.24 938V876.4H1209.04V938H1200.24ZM1227.48 938V876.4H1234.7L1275.44 927H1271.66V876.4H1280.46V938H1273.24L1232.5 887.4H1236.28V938H1227.48ZM1316.85 938.704C1312.15 938.704 1307.67 938 1303.38 936.592C1299.1 935.125 1295.73 933.248 1293.26 930.96L1296.52 924.096C1298.87 926.149 1301.86 927.851 1305.5 929.2C1309.13 930.549 1312.92 931.224 1316.85 931.224C1320.43 931.224 1323.33 930.813 1325.56 929.992C1327.79 929.171 1329.43 928.056 1330.49 926.648C1331.54 925.181 1332.07 923.539 1332.07 921.72C1332.07 919.608 1331.37 917.907 1329.96 916.616C1328.61 915.325 1326.82 914.299 1324.59 913.536C1322.42 912.715 1320.02 912.011 1317.38 911.424C1314.74 910.837 1312.07 910.163 1309.37 909.4C1306.73 908.579 1304.29 907.552 1302.06 906.32C1299.89 905.088 1298.13 903.445 1296.78 901.392C1295.43 899.28 1294.76 896.581 1294.76 893.296C1294.76 890.128 1295.58 887.224 1297.22 884.584C1298.93 881.885 1301.51 879.744 1304.97 878.16C1308.49 876.517 1312.95 875.696 1318.34 875.696C1321.92 875.696 1325.47 876.165 1328.99 877.104C1332.51 878.043 1335.56 879.392 1338.14 881.152L1335.24 888.192C1332.6 886.432 1329.81 885.171 1326.88 884.408C1323.95 883.587 1321.1 883.176 1318.34 883.176C1314.88 883.176 1312.04 883.616 1309.81 884.496C1307.58 885.376 1305.94 886.549 1304.88 888.016C1303.88 889.483 1303.38 891.125 1303.38 892.944C1303.38 895.115 1304.06 896.845 1305.41 898.136C1306.82 899.427 1308.61 900.453 1310.78 901.216C1313.01 901.979 1315.44 902.683 1318.08 903.328C1320.72 903.915 1323.36 904.589 1326 905.352C1328.7 906.115 1331.13 907.112 1333.3 908.344C1335.53 909.576 1337.32 911.219 1338.67 913.272C1340.02 915.325 1340.7 917.965 1340.7 921.192C1340.7 924.301 1339.85 927.205 1338.14 929.904C1336.44 932.544 1333.8 934.685 1330.22 936.328C1326.7 937.912 1322.25 938.704 1316.85 938.704ZM1353.55 938V876.4H1377.58C1382.97 876.4 1387.58 877.251 1391.39 878.952C1395.21 880.653 1398.14 883.117 1400.19 886.344C1402.25 889.571 1403.27 893.413 1403.27 897.872C1403.27 902.331 1402.25 906.173 1400.19 909.4C1398.14 912.568 1395.21 915.032 1391.39 916.792C1387.58 918.493 1382.97 919.344 1377.58 919.344H1358.39L1362.35 915.208V938H1353.55ZM1362.35 916.088L1358.39 911.688H1377.31C1382.94 911.688 1387.2 910.485 1390.07 908.08C1393.01 905.675 1394.47 902.272 1394.47 897.872C1394.47 893.472 1393.01 890.069 1390.07 887.664C1387.2 885.259 1382.94 884.056 1377.31 884.056H1358.39L1362.35 879.656V916.088ZM1416.2 938V876.4H1425V938H1416.2ZM1443.44 938V876.4H1467.47C1472.86 876.4 1477.47 877.251 1481.28 878.952C1485.1 880.653 1488.03 883.117 1490.08 886.344C1492.14 889.571 1493.16 893.413 1493.16 897.872C1493.16 902.331 1492.14 906.173 1490.08 909.4C1488.03 912.568 1485.1 915.003 1481.28 916.704C1477.47 918.405 1472.86 919.256 1467.47 919.256H1448.28L1452.24 915.208V938H1443.44ZM1484.63 938L1468.96 915.648H1478.38L1494.22 938H1484.63ZM1452.24 916.088L1448.28 911.776H1467.2C1472.84 911.776 1477.09 910.573 1479.96 908.168C1482.9 905.704 1484.36 902.272 1484.36 897.872C1484.36 893.472 1482.9 890.069 1479.96 887.664C1477.09 885.259 1472.84 884.056 1467.2 884.056H1448.28L1452.24 879.656V916.088ZM1515.39 902.976H1547.07V910.456H1515.39V902.976ZM1516.18 930.344H1552.08V938H1507.38V876.4H1550.85V884.056H1516.18V930.344ZM1779.03 938V876.4H1787.83V938H1779.03ZM1806.27 938V876.4H1813.49L1854.23 927H1850.45V876.4H1859.25V938H1852.03L1811.29 887.4H1815.07V938H1806.27ZM1877.69 938V876.4H1884.9L1925.65 927H1921.86V876.4H1930.66V938H1923.45L1882.7 887.4H1886.49V938H1877.69ZM1976.91 938.704C1972.21 938.704 1967.84 937.912 1963.8 936.328C1959.81 934.744 1956.34 932.544 1953.41 929.728C1950.48 926.853 1948.19 923.509 1946.55 919.696C1944.9 915.883 1944.08 911.717 1944.08 907.2C1944.08 902.683 1944.9 898.517 1946.55 894.704C1948.19 890.891 1950.48 887.576 1953.41 884.76C1956.34 881.885 1959.81 879.656 1963.8 878.072C1967.78 876.488 1972.16 875.696 1976.91 875.696C1981.6 875.696 1985.91 876.488 1989.84 878.072C1993.83 879.597 1997.29 881.797 2000.23 884.672C2003.22 887.488 2005.51 890.803 2007.09 894.616C2008.73 898.429 2009.56 902.624 2009.56 907.2C2009.56 911.776 2008.73 915.971 2007.09 919.784C2005.51 923.597 2003.22 926.941 2000.23 929.816C1997.29 932.632 1993.83 934.832 1989.84 936.416C1985.91 937.941 1981.6 938.704 1976.91 938.704ZM1976.91 930.872C1980.31 930.872 1983.45 930.285 1986.32 929.112C1989.26 927.939 1991.78 926.296 1993.89 924.184C1996.06 922.013 1997.73 919.491 1998.91 916.616C2000.14 913.741 2000.76 910.603 2000.76 907.2C2000.76 903.797 2000.14 900.659 1998.91 897.784C1997.73 894.909 1996.06 892.416 1993.89 890.304C1991.78 888.133 1989.26 886.461 1986.32 885.288C1983.45 884.115 1980.31 883.528 1976.91 883.528C1973.45 883.528 1970.25 884.115 1967.32 885.288C1964.44 886.461 1961.92 888.133 1959.75 890.304C1957.58 892.416 1955.88 894.909 1954.64 897.784C1953.47 900.659 1952.88 903.797 1952.88 907.2C1952.88 910.603 1953.47 913.741 1954.64 916.616C1955.88 919.491 1957.58 922.013 1959.75 924.184C1961.92 926.296 1964.44 927.939 1967.32 929.112C1970.25 930.285 1973.45 930.872 1976.91 930.872ZM2038.81 938L2011.7 876.4H2021.21L2046.11 933.248H2040.65L2065.73 876.4H2074.53L2047.52 938H2038.81ZM2071.08 938L2098.98 876.4H2107.69L2135.68 938H2126.44L2101.53 881.328H2105.05L2080.15 938H2071.08ZM2082.96 922.6L2085.34 915.56H2120.01L2122.56 922.6H2082.96ZM2154 938V884.056H2132.88V876.4H2183.84V884.056H2162.72V938H2154ZM2201.43 902.976H2233.11V910.456H2201.43V902.976ZM2202.22 930.344H2238.12V938H2193.42V876.4H2236.89V884.056H2202.22V930.344ZM2496.71 902.976H2528.39V910.456H2496.71V902.976ZM2497.5 930.344H2533.4V938H2488.7V876.4H2532.17V884.056H2497.5V930.344ZM2547.65 938V876.4H2554.87L2595.61 927H2591.83V876.4H2600.63V938H2593.41L2552.67 887.4H2556.45V938H2547.65ZM2646.88 938.704C2642.12 938.704 2637.75 937.941 2633.76 936.416C2629.77 934.832 2626.31 932.632 2623.38 929.816C2620.45 926.941 2618.16 923.597 2616.52 919.784C2614.87 915.971 2614.05 911.776 2614.05 907.2C2614.05 902.624 2614.87 898.429 2616.52 894.616C2618.16 890.803 2620.45 887.488 2623.38 884.672C2626.37 881.797 2629.86 879.597 2633.85 878.072C2637.84 876.488 2642.24 875.696 2647.05 875.696C2651.92 875.696 2656.38 876.488 2660.43 878.072C2664.48 879.656 2667.91 882.032 2670.72 885.2L2665.27 890.656C2662.75 888.192 2659.99 886.403 2657 885.288C2654.06 884.115 2650.87 883.528 2647.4 883.528C2643.88 883.528 2640.6 884.115 2637.55 885.288C2634.56 886.461 2631.95 888.104 2629.72 890.216C2627.55 892.328 2625.84 894.851 2624.61 897.784C2623.44 900.659 2622.85 903.797 2622.85 907.2C2622.85 910.544 2623.44 913.683 2624.61 916.616C2625.84 919.491 2627.55 922.013 2629.72 924.184C2631.95 926.296 2634.56 927.939 2637.55 929.112C2640.54 930.285 2643.8 930.872 2647.32 930.872C2650.6 930.872 2653.74 930.373 2656.73 929.376C2659.78 928.32 2662.6 926.589 2665.18 924.184L2670.2 930.872C2667.15 933.453 2663.57 935.419 2659.46 936.768C2655.41 938.059 2651.22 938.704 2646.88 938.704ZM2661.75 929.728V906.848H2670.2V930.872L2661.75 929.728ZM2687.04 938V876.4H2695.84V938H2687.04ZM2714.29 938V876.4H2721.5L2762.25 927H2758.46V876.4H2767.26V938H2760.05L2719.3 887.4H2723.09V938H2714.29ZM2793.71 902.976H2825.39V910.456H2793.71V902.976ZM2794.5 930.344H2830.4V938H2785.7V876.4H2829.17V884.056H2794.5V930.344ZM2852.66 902.976H2884.34V910.456H2852.66V902.976ZM2853.45 930.344H2889.36V938H2844.65V876.4H2888.13V884.056H2853.45V930.344ZM2903.61 938V876.4H2927.63C2933.03 876.4 2937.63 877.251 2941.45 878.952C2945.26 880.653 2948.19 883.117 2950.25 886.344C2952.3 889.571 2953.33 893.413 2953.33 897.872C2953.33 902.331 2952.3 906.173 2950.25 909.4C2948.19 912.568 2945.26 915.003 2941.45 916.704C2937.63 918.405 2933.03 919.256 2927.63 919.256H2908.45L2912.41 915.208V938H2903.61ZM2944.79 938L2929.13 915.648H2938.54L2954.38 938H2944.79ZM2912.41 916.088L2908.45 911.776H2927.37C2933 911.776 2937.25 910.573 2940.13 908.168C2943.06 905.704 2944.53 902.272 2944.53 897.872C2944.53 893.472 2943.06 890.069 2940.13 887.664C2937.25 885.259 2933 884.056 2927.37 884.056H2908.45L2912.41 879.656V916.088Z" fill="url(#paint10_linear_169_1189)"/>
<path d="M1663 871H1672V938H1663V871Z" fill="#FC6AFF"/>
<rect x="2364" y="871" width="9" height="67" fill="#339DDC"/>
<path d="M1231.87 693.722H1323.2V727.868H1231.87V693.722ZM1235.12 771.77H1338.38V807H1191.49V617.3H1334.85V652.53H1235.12V771.77ZM1363.32 807L1444.89 694.535V726.513L1366.85 617.3H1416.71L1470.64 693.451L1449.77 693.722L1502.89 617.3H1550.58L1473.08 724.616V693.18L1555.19 807H1504.51L1448.69 726.513H1468.74L1413.73 807H1363.32ZM1675.92 810.252C1661.28 810.252 1647.64 807.903 1635 803.206C1622.53 798.328 1611.69 791.463 1602.48 782.61C1593.26 773.757 1586.03 763.369 1580.8 751.445C1575.74 739.521 1573.21 726.423 1573.21 712.15C1573.21 697.877 1575.74 684.779 1580.8 672.855C1586.03 660.931 1593.26 650.543 1602.48 641.69C1611.87 632.837 1622.8 626.062 1635.27 621.365C1647.73 616.487 1661.37 614.048 1676.19 614.048C1692.63 614.048 1707.44 616.939 1720.63 622.72C1734 628.321 1745.2 636.631 1754.24 647.652L1726.05 673.668C1719.55 666.261 1712.32 660.75 1704.37 657.137C1696.42 653.343 1687.75 651.446 1678.36 651.446C1669.5 651.446 1661.37 652.891 1653.97 655.782C1646.56 658.673 1640.14 662.828 1634.72 668.248C1629.3 673.668 1625.06 680.082 1621.99 687.489C1619.1 694.896 1617.65 703.117 1617.65 712.15C1617.65 721.183 1619.1 729.404 1621.99 736.811C1625.06 744.218 1629.3 750.632 1634.72 756.052C1640.14 761.472 1646.56 765.627 1653.97 768.518C1661.37 771.409 1669.5 772.854 1678.36 772.854C1687.75 772.854 1696.42 771.047 1704.37 767.434C1712.32 763.64 1719.55 757.949 1726.05 750.361L1754.24 776.377C1745.2 787.398 1734 795.799 1720.63 801.58C1707.44 807.361 1692.54 810.252 1675.92 810.252ZM1837.81 693.722H1929.14V727.868H1837.81V693.722ZM1841.06 771.77H1944.31V807H1797.43V617.3H1940.79V652.53H1841.06V771.77ZM1992.8 807V617.3H2036.7V771.228H2131.82V807H1992.8ZM2246.65 807V778.545L2319.82 709.44C2325.6 704.201 2329.84 699.503 2332.55 695.348C2335.26 691.193 2337.07 687.399 2337.97 683.966C2339.06 680.533 2339.6 677.372 2339.6 674.481C2339.6 666.893 2336.98 661.112 2331.74 657.137C2326.68 652.982 2319.18 650.904 2309.25 650.904C2301.3 650.904 2293.89 652.44 2287.03 655.511C2280.34 658.582 2274.65 663.37 2269.95 669.874L2237.97 649.278C2245.2 638.438 2255.32 629.856 2268.33 623.533C2281.33 617.21 2296.33 614.048 2313.31 614.048C2327.4 614.048 2339.69 616.397 2350.17 621.094C2360.83 625.611 2369.05 632.024 2374.83 640.335C2380.79 648.646 2383.77 658.582 2383.77 670.145C2383.77 676.288 2382.96 682.43 2381.33 688.573C2379.89 694.535 2376.82 700.858 2372.12 707.543C2367.6 714.228 2360.92 721.725 2352.07 730.036L2291.36 787.217L2282.96 771.228H2390.01V807H2246.65ZM2502.97 810.252C2487.43 810.252 2473.52 806.458 2461.24 798.87C2448.95 791.101 2439.28 779.9 2432.24 765.266C2425.19 750.632 2421.67 732.927 2421.67 712.15C2421.67 691.373 2425.19 673.668 2432.24 659.034C2439.28 644.4 2448.95 633.289 2461.24 625.701C2473.52 617.932 2487.43 614.048 2502.97 614.048C2518.69 614.048 2532.6 617.932 2544.7 625.701C2556.99 633.289 2566.65 644.4 2573.7 659.034C2580.75 673.668 2584.27 691.373 2584.27 712.15C2584.27 732.927 2580.75 750.632 2573.7 765.266C2566.65 779.9 2556.99 791.101 2544.7 798.87C2532.6 806.458 2518.69 810.252 2502.97 810.252ZM2502.97 773.125C2510.38 773.125 2516.79 771.047 2522.21 766.892C2527.81 762.737 2532.15 756.142 2535.22 747.109C2538.47 738.076 2540.1 726.423 2540.1 712.15C2540.1 697.877 2538.47 686.224 2535.22 677.191C2532.15 668.158 2527.81 661.563 2522.21 657.408C2516.79 653.253 2510.38 651.175 2502.97 651.175C2495.74 651.175 2489.33 653.253 2483.73 657.408C2478.31 661.563 2473.97 668.158 2470.72 677.191C2467.65 686.224 2466.11 697.877 2466.11 712.15C2466.11 726.423 2467.65 738.076 2470.72 747.109C2473.97 756.142 2478.31 762.737 2483.73 766.892C2489.33 771.047 2495.74 773.125 2502.97 773.125ZM2616.47 807V778.545L2689.64 709.44C2695.42 704.201 2699.66 699.503 2702.37 695.348C2705.08 691.193 2706.89 687.399 2707.79 683.966C2708.88 680.533 2709.42 677.372 2709.42 674.481C2709.42 666.893 2706.8 661.112 2701.56 657.137C2696.5 652.982 2689 650.904 2679.07 650.904C2671.12 650.904 2663.71 652.44 2656.85 655.511C2650.16 658.582 2644.47 663.37 2639.77 669.874L2607.79 649.278C2615.02 638.438 2625.14 629.856 2638.15 623.533C2651.15 617.21 2666.15 614.048 2683.13 614.048C2697.22 614.048 2709.51 616.397 2719.99 621.094C2730.65 625.611 2738.87 632.024 2744.65 640.335C2750.61 648.646 2753.59 658.582 2753.59 670.145C2753.59 676.288 2752.78 682.43 2751.15 688.573C2749.71 694.535 2746.64 700.858 2741.94 707.543C2737.42 714.228 2730.74 721.725 2721.89 730.036L2661.18 787.217L2652.78 771.228H2759.83V807H2616.47ZM2786.68 767.163V737.624L2876.11 617.3H2922.18L2834.64 737.624L2813.23 731.391H2962.55V767.163H2786.68ZM2888.84 807V767.163L2890.2 731.391V695.89H2931.66V807H2888.84Z" fill="url(#paint11_linear_169_1189)"/>
<defs>
<linearGradient id="paint0_linear_169_1189" x1="966.495" y1="1214.17" x2="111.505" y2="396.326" gradientUnits="userSpaceOnUse">
<stop stop-color="#339DDC"/>
<stop offset="0.332112" stop-color="#2C1B77"/>
<stop offset="0.407749"/>
<stop offset="0.482841" stop-color="#2C1B77"/>
<stop offset="1" stop-color="#AD59AE"/>
</linearGradient>
<linearGradient id="paint1_linear_169_1189" x1="1196.5" y1="1145.46" x2="181.931" y2="146.582" gradientUnits="userSpaceOnUse">
<stop stop-color="#339DDC"/>
<stop offset="0.341434" stop-color="#2C1B77"/>
<stop offset="0.399755"/>
<stop offset="0.473739" stop-color="#2C1B77"/>
<stop offset="1" stop-color="#FD95FF"/>
</linearGradient>
<linearGradient id="paint2_linear_169_1189" x1="117.503" y1="1560.24" x2="1039.76" y2="309.985" gradientUnits="userSpaceOnUse">
<stop stop-color="#26A8F5"/>
<stop offset="0.984416" stop-color="#AD59AE"/>
</linearGradient>
<linearGradient id="paint3_linear_169_1189" x1="689.75" y1="351.986" x2="815.907" y2="502.168" gradientUnits="userSpaceOnUse">
<stop stop-color="#FD95FF"/>
<stop offset="1" stop-color="#339DDC"/>
</linearGradient>
<linearGradient id="paint4_linear_169_1189" x1="1188.22" y1="842.017" x2="23.9048" y2="842.017" gradientUnits="userSpaceOnUse">
<stop stop-color="#C630C9"/>
<stop offset="1" stop-color="#339DDC"/>
</linearGradient>
<linearGradient id="paint5_linear_169_1189" x1="1116.15" y1="669.316" x2="168.748" y2="669.316" gradientUnits="userSpaceOnUse">
<stop stop-color="#F16BF3"/>
<stop offset="0.38" stop-color="#002873"/>
<stop offset="1" stop-color="#3696CF"/>
</linearGradient>
<linearGradient id="paint6_linear_169_1189" x1="1116.15" y1="669.316" x2="168.748" y2="669.316" gradientUnits="userSpaceOnUse">
<stop stop-color="#F16BF3"/>
<stop offset="0.38" stop-color="#002873"/>
<stop offset="1" stop-color="#3696CF"/>
</linearGradient>
<linearGradient id="paint7_linear_169_1189" x1="1100.9" y1="1174.27" x2="197.436" y2="190.814" gradientUnits="userSpaceOnUse">
<stop stop-color="#3C61A7"/>
<stop offset="0.414057" stop-color="#2C1B77"/>
<stop offset="1" stop-color="#AE26B0"/>
</linearGradient>
<linearGradient id="paint8_linear_169_1189" x1="1100.9" y1="1174.27" x2="197.436" y2="190.814" gradientUnits="userSpaceOnUse">
<stop stop-color="#3C61A7"/>
<stop offset="0.414057" stop-color="#2C1B77"/>
<stop offset="1" stop-color="#AE26B0"/>
</linearGradient>
<linearGradient id="paint9_linear_169_1189" x1="759.706" y1="328.238" x2="759.706" y2="502.498" gradientUnits="userSpaceOnUse">
<stop stop-color="#F16BF3"/>
<stop offset="1" stop-color="#339DDC"/>
</linearGradient>
<linearGradient id="paint10_linear_169_1189" x1="1191" y1="906.5" x2="2959" y2="906.5" gradientUnits="userSpaceOnUse">
<stop offset="0.0335653" stop-color="#AD59AE"/>
<stop offset="1" stop-color="#26A8F5"/>
</linearGradient>
<linearGradient id="paint11_linear_169_1189" x1="1310" y1="710" x2="2966" y2="710" gradientUnits="userSpaceOnUse">
<stop stop-color="#AD59AE"/>
<stop offset="1" stop-color="#26A8F5"/>
</linearGradient>
</defs>
</svg>
