<svg width="16" height="18" viewBox="0 0 16 18" fill="none" xmlns="http://www.w3.org/2000/svg">
<path fill-rule="evenodd" clip-rule="evenodd" d="M1.82617 7.78106C1.83743 4.05316 4.53283 1.04137 7.84652 1.05399C11.1602 1.0667 13.8374 4.09903 13.8261 7.82693V7.90337C13.7853 10.3266 12.5826 12.5664 11.1081 14.317C10.2648 15.3021 9.32314 16.1743 8.30179 16.9161C8.02868 17.1818 7.62359 17.1818 7.35049 16.9161C5.82789 15.8011 4.49155 14.3935 3.40261 12.7575C2.43205 11.3309 1.881 9.59942 1.82617 7.804V7.78106Z" stroke="white" stroke-width="1.2" stroke-linecap="round" stroke-linejoin="round"/>
<path d="M7.82615 10.0743C8.88818 10.0743 9.74913 9.10576 9.74913 7.91097C9.74913 6.71619 8.88818 5.74762 7.82615 5.74762C6.76412 5.74762 5.90317 6.71619 5.90317 7.91097C5.90317 9.10576 6.76412 10.0743 7.82615 10.0743Z" stroke="white" stroke-width="1.2" stroke-linecap="round" stroke-linejoin="round"/>
</svg>
