<svg width="17" height="17" viewBox="0 0 17 17" fill="none" xmlns="http://www.w3.org/2000/svg">
<path d="M15.0115 14.9463L14.9996 13.3908C14.9933 12.5657 14.6184 11.7772 13.9576 11.1988C13.2968 10.6204 12.4041 10.2994 11.4758 10.3065L4.47603 10.3599C3.5478 10.367 2.6601 10.7016 2.00821 11.29C1.35633 11.8785 0.993663 12.6726 0.999992 13.4977L1.01192 15.0532M11.4281 4.08443C11.4413 5.8026 9.885 7.20742 7.95206 7.22218C6.01912 7.23694 4.44148 5.85605 4.4283 4.13788C4.41512 2.41971 5.9714 1.0149 7.90434 1.00014C9.83728 0.985376 11.4149 2.36626 11.4281 4.08443Z" stroke="white" stroke-width="2" stroke-linecap="round" stroke-linejoin="round"/>
</svg>
